<svg viewBox="0 0 544 24" xmlns="http://www.w3.org/2000/svg" xmlns:xlink="http://www.w3.org/1999/xlink" width="544.000000" height="24.000000" fill="none" customFrame="#000000">
	<defs>
		<clipPath id="clipPath_0">
			<rect width="87.000000" height="24.000000" x="0.000000" y="0.000000" fill="rgb(255,255,255)" />
		</clipPath>
		<clipPath id="clipPath_1">
			<rect width="24.000000" height="24.000000" x="0.000000" y="0.000000" fill="rgb(255,255,255)" />
		</clipPath>
		<clipPath id="clipPath_2">
			<rect width="152.000000" height="24.000000" x="127.000000" y="0.000000" fill="rgb(255,255,255)" />
		</clipPath>
		<clipPath id="clipPath_3">
			<rect width="24.000000" height="24.000000" x="127.000000" y="0.000000" fill="rgb(255,255,255)" />
		</clipPath>
		<clipPath id="clipPath_4">
			<rect width="99.000000" height="24.000000" x="319.000000" y="0.000000" fill="rgb(255,255,255)" />
		</clipPath>
		<clipPath id="clipPath_5">
			<rect width="24.000000" height="24.000000" x="319.000000" y="0.000000" fill="rgb(255,255,255)" />
		</clipPath>
		<clipPath id="clipPath_6">
			<rect width="86.000000" height="24.000000" x="458.000000" y="0.000000" fill="rgb(255,255,255)" />
		</clipPath>
		<clipPath id="clipPath_7">
			<rect width="24.000000" height="24.000000" x="458.000000" y="0.000000" fill="rgb(255,255,255)" />
		</clipPath>
	</defs>
	<rect id="Frame 1171277713" width="544.000000" height="24.000000" x="0.000000" y="0.000000" />
	<g id="Frame 2087326348" customFrame="url(#clipPath_0)">
		<rect id="Frame 2087326348" width="87.000000" height="24.000000" x="0.000000" y="0.000000" />
		<g id="mdi:spotify" clip-path="url(#clipPath_1)" customFrame="url(#clipPath_1)">
			<rect id="mdi:spotify" width="24.000000" height="24.000000" x="0.000000" y="0.000000" fill="rgb(255,255,255)" fill-opacity="0" />
			<path id="Vector" d="M17.9 10.9C14.7 9 9.35 8.8 6.3 9.75C5.8 9.9 5.3 9.6 5.15 9.15C5 8.65 5.3 8.15 5.75 8C9.3 6.95 15.15 7.15 18.85 9.35C19.3 9.6 19.45 10.2 19.2 10.65C18.95 11 18.35 11.15 17.9 10.9ZM17.8 13.7C17.55 14.05 17.1 14.2 16.75 13.95C14.05 12.3 9.95 11.8 6.8 12.8C6.4 12.9 5.95 12.7 5.85 12.3C5.75 11.9 5.95 11.45 6.35 11.35C10 10.25 14.5 10.8 17.6 12.7C17.9 12.85 18.05 13.35 17.8 13.7ZM16.6 16.45C16.4 16.75 16.05 16.85 15.75 16.65C13.4 15.2 10.45 14.9 6.95 15.7C6.6 15.8 6.3 15.55 6.2 15.25C6.1 14.9 6.35 14.6 6.65 14.5C10.45 13.65 13.75 14 16.35 15.6C16.7 15.75 16.75 16.15 16.6 16.45ZM12 2C10.6868 2 9.38642 2.25866 8.17317 2.7612C6.95991 3.26375 5.85752 4.00035 4.92893 4.92893C3.05357 6.8043 2 9.34784 2 12C2 14.6522 3.05357 17.1957 4.92893 19.0711C5.85752 19.9997 6.95991 20.7362 8.17317 21.2388C9.38642 21.7413 10.6868 22 12 22C14.6522 22 17.1957 20.9464 19.0711 19.0711C20.9464 17.1957 22 14.6522 22 12C22 10.6868 21.7413 9.38642 21.2388 8.17317C20.7362 6.95991 19.9997 5.85752 19.0711 4.92893C18.1425 4.00035 17.0401 3.26375 15.8268 2.7612C14.6136 2.25866 13.3132 2 12 2Z" fill="rgb(255,255,255)" fill-rule="nonzero" />
		</g>
		<path id="Spotify" d="M39.7656 9.23864C39.705 8.70076 39.455 8.28409 39.0156 7.98864C38.5762 7.68939 38.0232 7.53977 37.3565 7.53977C36.8793 7.53977 36.4664 7.61553 36.1179 7.76705C35.7694 7.91477 35.4986 8.11932 35.3054 8.38068C35.116 8.63826 35.0213 8.93182 35.0213 9.26136C35.0213 9.53788 35.0857 9.77652 35.2145 9.97727C35.3471 10.178 35.5194 10.3466 35.7315 10.483C35.9474 10.6155 36.1785 10.7273 36.4247 10.8182C36.6709 10.9053 36.9077 10.9773 37.1349 11.0341L38.2713 11.3295C38.6425 11.4205 39.0232 11.5436 39.4134 11.6989C39.8035 11.8542 40.1652 12.0587 40.4986 12.3125C40.8319 12.5663 41.1009 12.8807 41.3054 13.2557C41.5137 13.6307 41.6179 14.0795 41.6179 14.6023C41.6179 15.2614 41.4474 15.8466 41.1065 16.358C40.7694 16.8693 40.2789 17.2727 39.6349 17.5682C38.9948 17.8636 38.2202 18.0114 37.3111 18.0114C36.4399 18.0114 35.6861 17.8731 35.0497 17.5966C34.4134 17.3201 33.9152 16.928 33.5554 16.4205C33.1955 15.9091 32.9967 15.303 32.9588 14.6023L34.7202 14.6023C34.7543 15.0227 34.8906 15.3731 35.1293 15.6534C35.3717 15.9299 35.6804 16.1364 36.0554 16.2727C36.4342 16.4053 36.849 16.4716 37.2997 16.4716C37.7959 16.4716 38.2372 16.3939 38.6236 16.2386C39.0137 16.0795 39.3205 15.8598 39.544 15.5795C39.7675 15.2955 39.8793 14.964 39.8793 14.5852C39.8793 14.2405 39.7808 13.9583 39.5838 13.7386C39.3906 13.5189 39.1274 13.3371 38.794 13.1932C38.4645 13.0492 38.0914 12.9223 37.6747 12.8125L36.2997 12.4375C35.3679 12.1837 34.6293 11.8106 34.0838 11.3182C33.5421 10.8258 33.2713 10.1742 33.2713 9.36364C33.2713 8.69318 33.4531 8.10795 33.8168 7.60795C34.1804 7.10795 34.6728 6.7197 35.294 6.44318C35.9152 6.16288 36.616 6.02273 37.3963 6.02273C38.1842 6.02273 38.8793 6.16098 39.4815 6.4375C40.0876 6.71402 40.5649 7.0947 40.9134 7.57955C41.2618 8.06061 41.4437 8.61364 41.4588 9.23864L39.7656 9.23864ZM43.5795 21.0909L43.5795 9.09091L45.2386 9.09091L45.2386 10.5057L45.3807 10.5057C45.4792 10.3239 45.6212 10.1136 45.8068 9.875C45.9924 9.63636 46.25 9.42803 46.5795 9.25C46.9091 9.06818 47.3447 8.97727 47.8864 8.97727C48.5909 8.97727 49.2197 9.1553 49.7727 9.51136C50.3258 9.86742 50.7595 10.3807 51.0739 11.0511C51.392 11.7216 51.5511 12.5284 51.5511 13.4716C51.5511 14.4148 51.3939 15.2235 51.0795 15.8977C50.7652 16.5682 50.3333 17.0852 49.7841 17.4489C49.2348 17.8087 48.608 17.9886 47.9034 17.9886C47.3731 17.9886 46.9394 17.8996 46.6023 17.7216C46.2689 17.5436 46.0076 17.3352 45.8182 17.0966C45.6288 16.858 45.483 16.6458 45.3807 16.4602L45.2784 16.4602L45.2784 21.0909L43.5795 21.0909ZM45.2443 13.4545C45.2443 14.0682 45.3333 14.6061 45.5114 15.0682C45.6894 15.5303 45.947 15.892 46.2841 16.1534C46.6212 16.411 47.0341 16.5398 47.5227 16.5398C48.0303 16.5398 48.4545 16.4053 48.7955 16.1364C49.1364 15.8636 49.3939 15.4943 49.5682 15.0284C49.7462 14.5625 49.8352 14.0379 49.8352 13.4545C49.8352 12.8788 49.7481 12.3617 49.5739 11.9034C49.4034 11.4451 49.1458 11.0833 48.8011 10.8182C48.4602 10.553 48.0341 10.4205 47.5227 10.4205C47.0303 10.4205 46.6136 10.5473 46.2727 10.8011C45.9356 11.0549 45.6799 11.4091 45.5057 11.8636C45.3314 12.3182 45.2443 12.8485 45.2443 13.4545ZM57.1307 17.9943C56.3125 17.9943 55.5985 17.8068 54.9886 17.4318C54.3788 17.0568 53.9053 16.5322 53.5682 15.858C53.2311 15.1837 53.0625 14.3958 53.0625 13.4943C53.0625 12.589 53.2311 11.7973 53.5682 11.1193C53.9053 10.4413 54.3788 9.91477 54.9886 9.53977C55.5985 9.16477 56.3125 8.97727 57.1307 8.97727C57.9489 8.97727 58.6629 9.16477 59.2727 9.53977C59.8826 9.91477 60.3561 10.4413 60.6932 11.1193C61.0303 11.7973 61.1989 12.589 61.1989 13.4943C61.1989 14.3958 61.0303 15.1837 60.6932 15.858C60.3561 16.5322 59.8826 17.0568 59.2727 17.4318C58.6629 17.8068 57.9489 17.9943 57.1307 17.9943ZM57.1364 16.5682C57.6667 16.5682 58.1061 16.428 58.4545 16.1477C58.803 15.8674 59.0606 15.4943 59.2273 15.0284C59.3977 14.5625 59.483 14.0492 59.483 13.4886C59.483 12.9318 59.3977 12.4205 59.2273 11.9545C59.0606 11.4848 58.803 11.108 58.4545 10.8239C58.1061 10.5398 57.6667 10.3977 57.1364 10.3977C56.6023 10.3977 56.1591 10.5398 55.8068 10.8239C55.4583 11.108 55.1989 11.4848 55.0284 11.9545C54.8617 12.4205 54.7784 12.9318 54.7784 13.4886C54.7784 14.0492 54.8617 14.5625 55.0284 15.0284C55.1989 15.4943 55.4583 15.8674 55.8068 16.1477C56.1591 16.428 56.6023 16.5682 57.1364 16.5682ZM67.169 9.09091L67.169 10.4545L62.402 10.4545L62.402 9.09091L67.169 9.09091ZM63.6804 7L65.3793 7L65.3793 15.2557C65.3793 15.5852 65.4285 15.8333 65.527 16C65.6255 16.1629 65.7524 16.2746 65.9077 16.3352C66.0668 16.392 66.2391 16.4205 66.4247 16.4205C66.5611 16.4205 66.6804 16.411 66.7827 16.392C66.8849 16.3731 66.9645 16.358 67.0213 16.3466L67.3281 17.75C67.2296 17.7879 67.0895 17.8258 66.9077 17.8636C66.7259 17.9053 66.4986 17.928 66.2259 17.9318C65.7789 17.9394 65.3622 17.8598 64.9759 17.6932C64.5895 17.5265 64.277 17.2689 64.0384 16.9205C63.7997 16.572 63.6804 16.1345 63.6804 15.608L63.6804 7ZM69.0483 17.8182L69.0483 9.09091L70.7472 9.09091L70.7472 17.8182L69.0483 17.8182ZM69.9062 7.74432C69.6108 7.74432 69.357 7.64583 69.1449 7.44886C68.9366 7.24811 68.8324 7.00947 68.8324 6.73295C68.8324 6.45265 68.9366 6.21402 69.1449 6.01705C69.357 5.81629 69.6108 5.71591 69.9062 5.71591C70.2017 5.71591 70.4536 5.81629 70.6619 6.01705C70.8741 6.21402 70.9801 6.45265 70.9801 6.73295C70.9801 7.00947 70.8741 7.24811 70.6619 7.44886C70.4536 7.64583 70.2017 7.74432 69.9062 7.74432ZM77.1861 9.09091L77.1861 10.4545L72.2543 10.4545L72.2543 9.09091L77.1861 9.09091ZM73.6065 17.8182L73.6065 8.07955C73.6065 7.53409 73.7259 7.08144 73.9645 6.72159C74.2031 6.35795 74.5194 6.08712 74.9134 5.90909C75.3073 5.72727 75.7353 5.63636 76.1974 5.63636C76.5384 5.63636 76.83 5.66477 77.0724 5.72159C77.3149 5.77462 77.4948 5.82386 77.6122 5.86932L77.2145 7.24432C77.1349 7.22159 77.0327 7.19508 76.9077 7.16477C76.7827 7.13068 76.6312 7.11364 76.4531 7.11364C76.0402 7.11364 75.7448 7.21591 75.5668 7.42045C75.3925 7.625 75.3054 7.92045 75.3054 8.30682L75.3054 17.8182L73.6065 17.8182ZM80.0128 21.0909C79.759 21.0909 79.5279 21.0701 79.3196 21.0284C79.1113 20.9905 78.956 20.9489 78.8537 20.9034L79.2628 19.5114C79.5734 19.5947 79.8499 19.6307 80.0923 19.6193C80.3348 19.608 80.5488 19.517 80.7344 19.3466C80.9238 19.1761 81.0904 18.8977 81.2344 18.5114L81.4446 17.9318L78.2514 9.09091L80.0696 9.09091L82.2798 15.8636L82.3707 15.8636L84.581 9.09091L86.4048 9.09091L82.8082 18.983C82.6416 19.4375 82.4295 19.822 82.1719 20.1364C81.9143 20.4545 81.6075 20.6932 81.2514 20.8523C80.8954 21.0114 80.4825 21.0909 80.0128 21.0909Z" opacity="0.600000024" fill="rgb(255,255,255)" fill-rule="nonzero" />
	</g>
	<g id="Frame 2087326349" customFrame="url(#clipPath_2)">
		<rect id="Frame 2087326349" width="152.000000" height="24.000000" x="127.000000" y="0.000000" />
		<g id="cib:apple-podcasts" clip-path="url(#clipPath_3)" customFrame="url(#clipPath_3)">
			<rect id="cib:apple-podcasts" width="24.000000" height="24.000000" x="127.000000" y="0.000000" fill="rgb(255,255,255)" fill-opacity="0" />
			<path id="Vector" d="M133.45 2.00002C132.865 1.99837 132.286 2.11234 131.745 2.33539C131.204 2.55844 130.713 2.88616 130.3 3.29971C129.886 3.71326 129.558 4.20448 129.335 4.74512C129.112 5.28576 128.998 5.86517 129 6.45001L129 17.55C128.998 18.1348 129.112 18.7142 129.335 19.2549C129.558 19.7955 129.886 20.2867 130.3 20.7003C130.713 21.1138 131.204 21.4416 131.745 21.6646C132.286 21.8877 132.865 22.0016 133.45 22L144.55 22C145.135 22.0016 145.714 21.8877 146.255 21.6646C146.796 21.4416 147.287 21.1138 147.7 20.7003C148.114 20.2867 148.442 19.7955 148.665 19.2549C148.888 18.7142 149.002 18.1348 149 17.55L149 6.45001C149.002 5.86517 148.888 5.28576 148.665 4.74512C148.442 4.20448 148.114 3.71326 147.7 3.29971C147.287 2.88616 146.796 2.55844 146.255 2.33539C145.714 2.11234 145.135 1.99837 144.55 2.00002L133.45 2.00002ZM138.886 4.13814C140.832 4.13814 142.593 4.89064 143.935 6.29626C144.954 7.35438 145.527 8.47688 145.82 9.95563C145.921 10.4475 145.921 11.7881 145.826 12.3412C145.515 14.1001 144.551 15.6767 143.127 16.7556C142.62 17.14 141.379 17.8075 141.181 17.8075C141.106 17.8075 141.1 17.7325 141.132 17.4231C141.194 16.9281 141.253 16.8275 141.533 16.71C141.978 16.525 142.74 15.9806 143.206 15.5156C144.019 14.7016 144.598 13.6824 144.879 12.5662C145.054 11.8787 145.031 10.3519 144.839 9.64625C144.234 7.39938 142.397 5.65564 140.152 5.18626C139.501 5.05314 138.312 5.05314 137.652 5.18626C135.379 5.65564 133.498 7.48813 132.925 9.79313C132.772 10.4206 132.772 11.9481 132.925 12.5731C133.306 14.1 134.293 15.4987 135.584 16.3325C135.839 16.5019 136.144 16.6744 136.272 16.7269C136.551 16.8469 136.614 16.9487 136.665 17.4394C136.698 17.7425 136.691 17.8269 136.62 17.8269C136.574 17.8269 136.232 17.68 135.871 17.5075L135.838 17.4819C133.778 16.4694 132.459 14.7544 131.978 12.4719C131.861 11.8825 131.838 10.48 131.955 9.93938C132.254 8.48751 132.828 7.35501 133.781 6.35251C135.155 4.90314 136.923 4.13814 138.888 4.13814L138.886 4.13814ZM139 6.48251C139.309 6.48166 139.617 6.51097 139.921 6.57001C142.242 7.08751 143.886 9.40938 143.566 11.7131C143.439 12.6437 143.121 13.4062 142.554 14.1156C142.274 14.4737 141.594 15.0731 141.474 15.0731C141.454 15.0731 141.434 14.845 141.434 14.5712L141.434 14.0662L141.779 13.6531C143.087 12.0875 142.994 9.9 141.567 8.46813C141.014 7.90813 140.372 7.57876 139.546 7.43001C139.012 7.32938 138.901 7.32938 138.341 7.42313C137.489 7.56001 136.831 7.88813 136.244 8.46813C134.812 9.8875 134.718 12.0875 136.027 13.6531L136.372 14.0662L136.372 14.5744C136.372 14.8544 136.349 15.0787 136.319 15.0787C136.297 15.0787 136.101 14.9456 135.893 14.7794L135.863 14.7694C135.17 14.2162 134.558 13.2362 134.304 12.2725C134.151 11.69 134.151 10.5869 134.311 10.0069C134.731 8.44126 135.886 7.22688 137.485 6.65751C137.827 6.53688 138.428 6.47188 138.995 6.48188L139 6.48251ZM138.889 8.97251C139.15 8.97251 139.407 9.02501 139.596 9.12251C139.999 9.33438 140.336 9.74063 140.462 10.1706C140.849 11.4856 139.456 12.6381 138.193 12.0487L138.183 12.0487C137.588 11.7719 137.268 11.2513 137.261 10.5738C137.261 9.96188 137.599 9.43126 138.189 9.11876C138.374 9.02126 138.632 8.97188 138.892 8.97188L138.889 8.97251ZM138.883 12.915C139.707 12.9119 140.302 13.2044 140.523 13.7219C140.689 14.1094 140.628 15.33 140.341 17.3062C140.149 18.6862 140.041 19.0344 139.775 19.2694C139.407 19.5944 138.889 19.6862 138.394 19.51L138.392 19.51C137.796 19.295 137.669 19.005 137.421 17.3056C137.139 15.33 137.076 14.1087 137.243 13.7212C137.461 13.2069 138.053 12.9181 138.883 12.9144L138.883 12.915Z" fill="rgb(255,255,255)" fill-rule="nonzero" />
		</g>
		<path id="Apple Podcasts" d="M161.511 17.8182L159.648 17.8182L163.835 6.18182L165.864 6.18182L170.051 17.8182L168.188 17.8182L164.898 8.29545L164.807 8.29545L161.511 17.8182ZM161.824 13.2614L167.869 13.2614L167.869 14.7386L161.824 14.7386L161.824 13.2614ZM171.595 21.0909L171.595 9.09091L173.254 9.09091L173.254 10.5057L173.396 10.5057C173.495 10.3239 173.637 10.1136 173.822 9.875C174.008 9.63636 174.266 9.42803 174.595 9.25C174.925 9.06818 175.36 8.97727 175.902 8.97727C176.607 8.97727 177.235 9.1553 177.788 9.51136C178.341 9.86742 178.775 10.3807 179.089 11.0511C179.408 11.7216 179.567 12.5284 179.567 13.4716C179.567 14.4148 179.41 15.2235 179.095 15.8977C178.781 16.5682 178.349 17.0852 177.8 17.4489C177.25 17.8087 176.624 17.9886 175.919 17.9886C175.389 17.9886 174.955 17.8996 174.618 17.7216C174.285 17.5436 174.023 17.3352 173.834 17.0966C173.644 16.858 173.499 16.6458 173.396 16.4602L173.294 16.4602L173.294 21.0909L171.595 21.0909ZM173.26 13.4545C173.26 14.0682 173.349 14.6061 173.527 15.0682C173.705 15.5303 173.963 15.892 174.3 16.1534C174.637 16.411 175.05 16.5398 175.538 16.5398C176.046 16.5398 176.47 16.4053 176.811 16.1364C177.152 15.8636 177.41 15.4943 177.584 15.0284C177.762 14.5625 177.851 14.0379 177.851 13.4545C177.851 12.8788 177.764 12.3617 177.589 11.9034C177.419 11.4451 177.161 11.0833 176.817 10.8182C176.476 10.553 176.05 10.4205 175.538 10.4205C175.046 10.4205 174.629 10.5473 174.288 10.8011C173.951 11.0549 173.696 11.4091 173.521 11.8636C173.347 12.3182 173.26 12.8485 173.26 13.4545ZM181.47 21.0909L181.47 9.09091L183.129 9.09091L183.129 10.5057L183.271 10.5057C183.37 10.3239 183.512 10.1136 183.697 9.875C183.883 9.63636 184.141 9.42803 184.47 9.25C184.8 9.06818 185.235 8.97727 185.777 8.97727C186.482 8.97727 187.11 9.1553 187.663 9.51136C188.216 9.86742 188.65 10.3807 188.964 11.0511C189.283 11.7216 189.442 12.5284 189.442 13.4716C189.442 14.4148 189.285 15.2235 188.97 15.8977C188.656 16.5682 188.224 17.0852 187.675 17.4489C187.125 17.8087 186.499 17.9886 185.794 17.9886C185.264 17.9886 184.83 17.8996 184.493 17.7216C184.16 17.5436 183.898 17.3352 183.709 17.0966C183.519 16.858 183.374 16.6458 183.271 16.4602L183.169 16.4602L183.169 21.0909L181.47 21.0909ZM183.135 13.4545C183.135 14.0682 183.224 14.6061 183.402 15.0682C183.58 15.5303 183.838 15.892 184.175 16.1534C184.512 16.411 184.925 16.5398 185.413 16.5398C185.921 16.5398 186.345 16.4053 186.686 16.1364C187.027 15.8636 187.285 15.4943 187.459 15.0284C187.637 14.5625 187.726 14.0379 187.726 13.4545C187.726 12.8788 187.639 12.3617 187.464 11.9034C187.294 11.4451 187.036 11.0833 186.692 10.8182C186.351 10.553 185.925 10.4205 185.413 10.4205C184.921 10.4205 184.504 10.5473 184.163 10.8011C183.826 11.0549 183.571 11.4091 183.396 11.8636C183.222 12.3182 183.135 12.8485 183.135 13.4545ZM193.044 6.18182L193.044 17.8182L191.345 17.8182L191.345 6.18182L193.044 6.18182ZM199.091 17.9943C198.231 17.9943 197.491 17.8106 196.869 17.4432C196.252 17.072 195.775 16.5511 195.438 15.8807C195.104 15.2064 194.938 14.4167 194.938 13.5114C194.938 12.6174 195.104 11.8295 195.438 11.1477C195.775 10.4659 196.244 9.93371 196.847 9.55114C197.453 9.16856 198.161 8.97727 198.972 8.97727C199.464 8.97727 199.941 9.05871 200.403 9.22159C200.866 9.38447 201.28 9.64015 201.648 9.98864C202.015 10.3371 202.305 10.7898 202.517 11.3466C202.729 11.8996 202.835 12.572 202.835 13.3636L202.835 13.9659L195.898 13.9659L195.898 12.6932L201.17 12.6932C201.17 12.2462 201.08 11.8504 200.898 11.5057C200.716 11.1572 200.46 10.8826 200.131 10.6818C199.805 10.4811 199.422 10.3807 198.983 10.3807C198.506 10.3807 198.089 10.4981 197.733 10.733C197.381 10.964 197.108 11.267 196.915 11.642C196.725 12.0133 196.631 12.4167 196.631 12.8523L196.631 13.8466C196.631 14.4299 196.733 14.9261 196.938 15.3352C197.146 15.7443 197.436 16.0568 197.807 16.2727C198.178 16.4848 198.612 16.5909 199.108 16.5909C199.43 16.5909 199.723 16.5455 199.989 16.4545C200.254 16.3598 200.483 16.2197 200.676 16.0341C200.869 15.8485 201.017 15.6193 201.119 15.3466L202.727 15.6364C202.598 16.1098 202.367 16.5246 202.034 16.8807C201.705 17.233 201.29 17.5076 200.79 17.7045C200.294 17.8977 199.727 17.9943 199.091 17.9943ZM209.091 17.8182L209.091 6.18182L213.239 6.18182C214.144 6.18182 214.894 6.34659 215.489 6.67614C216.083 7.00568 216.528 7.45644 216.824 8.02841C217.119 8.59659 217.267 9.23674 217.267 9.94886C217.267 10.6648 217.117 11.3087 216.818 11.8807C216.523 12.4489 216.076 12.8996 215.477 13.233C214.883 13.5625 214.134 13.7273 213.233 13.7273L210.381 13.7273L210.381 12.2386L213.074 12.2386C213.646 12.2386 214.11 12.1402 214.466 11.9432C214.822 11.7424 215.083 11.4697 215.25 11.125C215.417 10.7803 215.5 10.3883 215.5 9.94886C215.5 9.50947 215.417 9.11932 215.25 8.77841C215.083 8.4375 214.82 8.17045 214.46 7.97727C214.104 7.78409 213.634 7.6875 213.051 7.6875L210.847 7.6875L210.847 17.8182L209.091 17.8182ZM222.756 17.9943C221.938 17.9943 221.223 17.8068 220.614 17.4318C220.004 17.0568 219.53 16.5322 219.193 15.858C218.856 15.1837 218.688 14.3958 218.688 13.4943C218.688 12.589 218.856 11.7973 219.193 11.1193C219.53 10.4413 220.004 9.91477 220.614 9.53977C221.223 9.16477 221.938 8.97727 222.756 8.97727C223.574 8.97727 224.288 9.16477 224.898 9.53977C225.508 9.91477 225.981 10.4413 226.318 11.1193C226.655 11.7973 226.824 12.589 226.824 13.4943C226.824 14.3958 226.655 15.1837 226.318 15.858C225.981 16.5322 225.508 17.0568 224.898 17.4318C224.288 17.8068 223.574 17.9943 222.756 17.9943ZM222.761 16.5682C223.292 16.5682 223.731 16.428 224.08 16.1477C224.428 15.8674 224.686 15.4943 224.852 15.0284C225.023 14.5625 225.108 14.0492 225.108 13.4886C225.108 12.9318 225.023 12.4205 224.852 11.9545C224.686 11.4848 224.428 11.108 224.08 10.8239C223.731 10.5398 223.292 10.3977 222.761 10.3977C222.227 10.3977 221.784 10.5398 221.432 10.8239C221.083 11.108 220.824 11.4848 220.653 11.9545C220.487 12.4205 220.403 12.9318 220.403 13.4886C220.403 14.0492 220.487 14.5625 220.653 15.0284C220.824 15.4943 221.083 15.8674 221.432 16.1477C221.784 16.428 222.227 16.5682 222.761 16.5682ZM231.987 17.9886C231.283 17.9886 230.654 17.8087 230.101 17.4489C229.552 17.0852 229.12 16.5682 228.805 15.8977C228.495 15.2235 228.339 14.4148 228.339 13.4716C228.339 12.5284 228.497 11.7216 228.811 11.0511C229.129 10.3807 229.565 9.86742 230.118 9.51136C230.671 9.1553 231.298 8.97727 231.999 8.97727C232.54 8.97727 232.976 9.06818 233.305 9.25C233.639 9.42803 233.896 9.63636 234.078 9.875C234.264 10.1136 234.408 10.3239 234.51 10.5057L234.612 10.5057L234.612 6.18182L236.311 6.18182L236.311 17.8182L234.652 17.8182L234.652 16.4602L234.51 16.4602C234.408 16.6458 234.26 16.858 234.067 17.0966C233.877 17.3352 233.616 17.5436 233.283 17.7216C232.949 17.8996 232.518 17.9886 231.987 17.9886ZM232.362 16.5398C232.851 16.5398 233.264 16.411 233.601 16.1534C233.942 15.892 234.199 15.5303 234.374 15.0682C234.552 14.6061 234.641 14.0682 234.641 13.4545C234.641 12.8485 234.553 12.3182 234.379 11.8636C234.205 11.4091 233.949 11.0549 233.612 10.8011C233.275 10.5473 232.858 10.4205 232.362 10.4205C231.851 10.4205 231.425 10.553 231.084 10.8182C230.743 11.0833 230.485 11.4451 230.311 11.9034C230.141 12.3617 230.055 12.8788 230.055 13.4545C230.055 14.0379 230.143 14.5625 230.317 15.0284C230.491 15.4943 230.749 15.8636 231.089 16.1364C231.434 16.4053 231.858 16.5398 232.362 16.5398ZM242.412 17.9943C241.567 17.9943 240.84 17.803 240.23 17.4205C239.624 17.0341 239.158 16.5019 238.832 15.8239C238.507 15.1458 238.344 14.3693 238.344 13.4943C238.344 12.608 238.51 11.8258 238.844 11.1477C239.177 10.4659 239.647 9.93371 240.253 9.55114C240.859 9.16856 241.573 8.97727 242.395 8.97727C243.058 8.97727 243.649 9.10038 244.168 9.34659C244.687 9.58902 245.105 9.92992 245.423 10.3693C245.745 10.8087 245.937 11.322 245.997 11.9091L244.344 11.9091C244.253 11.5 244.045 11.1477 243.719 10.8523C243.397 10.5568 242.965 10.4091 242.423 10.4091C241.95 10.4091 241.535 10.5341 241.179 10.7841C240.827 11.0303 240.552 11.3826 240.355 11.8409C240.158 12.2955 240.06 12.8333 240.06 13.4545C240.06 14.0909 240.156 14.6402 240.349 15.1023C240.543 15.5644 240.815 15.9223 241.168 16.1761C241.524 16.4299 241.942 16.5568 242.423 16.5568C242.745 16.5568 243.037 16.4981 243.298 16.3807C243.563 16.2595 243.785 16.0871 243.963 15.8636C244.145 15.6402 244.272 15.3712 244.344 15.0568L245.997 15.0568C245.937 15.6212 245.753 16.125 245.446 16.5682C245.139 17.0114 244.728 17.3598 244.213 17.6136C243.702 17.8674 243.101 17.9943 242.412 17.9943ZM250.354 18.0114C249.801 18.0114 249.301 17.9091 248.854 17.7045C248.407 17.4962 248.053 17.1951 247.791 16.8011C247.534 16.4072 247.405 15.9242 247.405 15.3523C247.405 14.8598 247.5 14.4545 247.689 14.1364C247.878 13.8182 248.134 13.5663 248.456 13.3807C248.778 13.1951 249.138 13.0549 249.536 12.9602C249.933 12.8655 250.339 12.7936 250.751 12.7443C251.274 12.6837 251.698 12.6345 252.024 12.5966C252.35 12.5549 252.587 12.4886 252.734 12.3977C252.882 12.3068 252.956 12.1591 252.956 11.9545L252.956 11.9148C252.956 11.4186 252.816 11.0341 252.536 10.7614C252.259 10.4886 251.846 10.3523 251.297 10.3523C250.725 10.3523 250.274 10.4792 249.945 10.733C249.619 10.983 249.393 11.2614 249.268 11.5682L247.672 11.2045C247.861 10.6742 248.138 10.2462 248.501 9.92045C248.869 9.59091 249.291 9.35227 249.768 9.20455C250.246 9.05303 250.748 8.97727 251.274 8.97727C251.623 8.97727 251.992 9.01894 252.382 9.10227C252.776 9.18182 253.143 9.32955 253.484 9.54545C253.829 9.76136 254.111 10.0701 254.331 10.4716C254.551 10.8693 254.661 11.3864 254.661 12.0227L254.661 17.8182L253.001 17.8182L253.001 16.625L252.933 16.625C252.823 16.8447 252.659 17.0606 252.439 17.2727C252.219 17.4848 251.937 17.661 251.592 17.8011C251.248 17.9413 250.835 18.0114 250.354 18.0114ZM250.723 16.6477C251.193 16.6477 251.594 16.5549 251.928 16.3693C252.265 16.1837 252.52 15.9413 252.695 15.642C252.873 15.339 252.962 15.0152 252.962 14.6705L252.962 13.5455C252.901 13.6061 252.784 13.6629 252.609 13.7159C252.439 13.7652 252.244 13.8087 252.024 13.8466C251.804 13.8807 251.59 13.9129 251.382 13.9432C251.174 13.9697 251 13.9924 250.859 14.0114C250.53 14.053 250.229 14.1231 249.956 14.2216C249.687 14.3201 249.471 14.4621 249.308 14.6477C249.149 14.8295 249.07 15.072 249.07 15.375C249.07 15.7955 249.225 16.1136 249.536 16.3295C249.846 16.5417 250.242 16.6477 250.723 16.6477ZM263.463 11.2216L261.923 11.4943C261.859 11.2973 261.757 11.1098 261.616 10.9318C261.48 10.7538 261.294 10.608 261.06 10.4943C260.825 10.3807 260.531 10.3239 260.179 10.3239C259.698 10.3239 259.296 10.4318 258.974 10.6477C258.652 10.8598 258.491 11.1345 258.491 11.4716C258.491 11.7633 258.599 11.9981 258.815 12.1761C259.031 12.3542 259.38 12.5 259.861 12.6136L261.247 12.9318C262.05 13.1174 262.649 13.4034 263.043 13.7898C263.437 14.1761 263.634 14.678 263.634 15.2955C263.634 15.8182 263.482 16.2841 263.179 16.6932C262.88 17.0985 262.461 17.4167 261.923 17.6477C261.389 17.8788 260.77 17.9943 260.065 17.9943C259.088 17.9943 258.291 17.786 257.673 17.3693C257.056 16.9489 256.677 16.3523 256.537 15.5795L258.179 15.3295C258.281 15.7576 258.491 16.0814 258.81 16.3011C259.128 16.517 259.543 16.625 260.054 16.625C260.611 16.625 261.056 16.5095 261.389 16.2784C261.723 16.0436 261.889 15.7576 261.889 15.4205C261.889 15.1477 261.787 14.9186 261.582 14.733C261.382 14.5473 261.073 14.4072 260.656 14.3125L259.179 13.9886C258.365 13.803 257.762 13.5076 257.372 13.1023C256.986 12.697 256.793 12.1837 256.793 11.5625C256.793 11.0473 256.937 10.5966 257.224 10.2102C257.512 9.82386 257.91 9.52273 258.418 9.30682C258.925 9.08712 259.507 8.97727 260.162 8.97727C261.105 8.97727 261.848 9.18182 262.389 9.59091C262.931 9.99621 263.289 10.5398 263.463 11.2216ZM269.575 9.09091L269.575 10.4545L264.808 10.4545L264.808 9.09091L269.575 9.09091ZM266.087 7L267.786 7L267.786 15.2557C267.786 15.5852 267.835 15.8333 267.933 16C268.032 16.1629 268.159 16.2746 268.314 16.3352C268.473 16.392 268.645 16.4205 268.831 16.4205C268.967 16.4205 269.087 16.411 269.189 16.392C269.291 16.3731 269.371 16.358 269.428 16.3466L269.734 17.75C269.636 17.7879 269.496 17.8258 269.314 17.8636C269.132 17.9053 268.905 17.928 268.632 17.9318C268.185 17.9394 267.768 17.8598 267.382 17.6932C266.996 17.5265 266.683 17.2689 266.445 16.9205C266.206 16.572 266.087 16.1345 266.087 15.608L266.087 7ZM277.854 11.2216L276.314 11.4943C276.25 11.2973 276.147 11.1098 276.007 10.9318C275.871 10.7538 275.685 10.608 275.45 10.4943C275.215 10.3807 274.922 10.3239 274.57 10.3239C274.089 10.3239 273.687 10.4318 273.365 10.6477C273.043 10.8598 272.882 11.1345 272.882 11.4716C272.882 11.7633 272.99 11.9981 273.206 12.1761C273.422 12.3542 273.77 12.5 274.251 12.6136L275.638 12.9318C276.441 13.1174 277.039 13.4034 277.433 13.7898C277.827 14.1761 278.024 14.678 278.024 15.2955C278.024 15.8182 277.873 16.2841 277.57 16.6932C277.27 17.0985 276.852 17.4167 276.314 17.6477C275.78 17.8788 275.161 17.9943 274.456 17.9943C273.479 17.9943 272.681 17.786 272.064 17.3693C271.447 16.9489 271.068 16.3523 270.928 15.5795L272.57 15.3295C272.672 15.7576 272.882 16.0814 273.2 16.3011C273.518 16.517 273.933 16.625 274.445 16.625C275.001 16.625 275.447 16.5095 275.78 16.2784C276.113 16.0436 276.28 15.7576 276.28 15.4205C276.28 15.1477 276.178 14.9186 275.973 14.733C275.772 14.5473 275.464 14.4072 275.047 14.3125L273.57 13.9886C272.755 13.803 272.153 13.5076 271.763 13.1023C271.376 12.697 271.183 12.1837 271.183 11.5625C271.183 11.0473 271.327 10.5966 271.615 10.2102C271.903 9.82386 272.301 9.52273 272.808 9.30682C273.316 9.08712 273.897 8.97727 274.553 8.97727C275.496 8.97727 276.238 9.18182 276.78 9.59091C277.322 9.99621 277.679 10.5398 277.854 11.2216Z" opacity="0.600000024" fill="rgb(255,255,255)" fill-rule="nonzero" />
	</g>
	<g id="Frame 2087326350" customFrame="url(#clipPath_4)">
		<rect id="Frame 2087326350" width="99.000000" height="24.000000" x="319.000000" y="0.000000" />
		<g id="mingcute:youtube-fill" clip-path="url(#clipPath_5)" customFrame="url(#clipPath_5)">
			<rect id="mingcute:youtube-fill" width="24.000000" height="24.000000" x="319.000000" y="0.000000" fill="rgb(255,255,255)" fill-opacity="0" />
			<g id="Group">
				<path id="Vector" d="M331.593 23.2579L331.582 23.2599L331.511 23.2949L331.491 23.2989L331.477 23.2949L331.406 23.2599C331.395 23.2566 331.387 23.2583 331.382 23.2649L331.378 23.2749L331.361 23.7029L331.366 23.7229L331.376 23.7359L331.48 23.8099L331.495 23.8139L331.507 23.8099L331.611 23.7359L331.623 23.7199L331.627 23.7029L331.61 23.2759C331.607 23.2653 331.602 23.2593 331.593 23.2579ZM331.858 23.1449L331.845 23.1469L331.66 23.2399L331.65 23.2499L331.647 23.2609L331.665 23.6909L331.67 23.7029L331.678 23.7099L331.879 23.8029C331.892 23.8063 331.901 23.8036 331.908 23.7949L331.912 23.7809L331.878 23.1669C331.875 23.1549 331.868 23.1476 331.858 23.1449ZM331.143 23.1469C331.139 23.1443 331.133 23.1434 331.128 23.1445C331.123 23.1456 331.119 23.1487 331.116 23.1529L331.11 23.1669L331.076 23.7809C331.077 23.7929 331.082 23.8009 331.093 23.8049L331.108 23.8029L331.309 23.7099L331.319 23.7019L331.323 23.6909L331.34 23.2609L331.337 23.2489L331.327 23.2389L331.143 23.1469Z" fill-rule="evenodd" />
				<path id="Vector" d="M331 4C331.855 4 332.732 4.022 333.582 4.058L334.586 4.106L335.547 4.163L336.447 4.224L337.269 4.288C338.161 4.35589 339.001 4.73643 339.64 5.3626C340.279 5.98877 340.677 6.8204 340.763 7.711L340.803 8.136L340.878 9.046C340.948 9.989 341 11.017 341 12C341 12.983 340.948 14.011 340.878 14.954L340.803 15.864L340.763 16.289C340.677 17.1798 340.279 18.0115 339.64 18.6377C339 19.2639 338.16 19.6443 337.268 19.712L336.448 19.775L335.548 19.837L334.586 19.894L333.582 19.942C332.722 19.9793 331.861 19.9986 331 20C330.139 19.9986 329.278 19.9793 328.418 19.942L327.414 19.894L326.453 19.837L325.553 19.775L324.731 19.712C323.839 19.6441 322.999 19.2636 322.36 18.6374C321.721 18.0112 321.323 17.1796 321.237 16.289L321.197 15.864L321.122 14.954C321.046 13.9711 321.005 12.9858 321 12C321 11.017 321.052 9.989 321.122 9.046L321.197 8.136L321.237 7.711C321.323 6.82055 321.721 5.98905 322.36 5.36291C322.999 4.73676 323.838 4.35612 324.73 4.288L325.551 4.224L326.451 4.163L327.413 4.106L328.417 4.058C329.277 4.02073 330.139 4.00139 331 4ZM329 9.575L329 14.425C329 14.887 329.5 15.175 329.9 14.945L334.1 12.52C334.191 12.4674 334.267 12.3916 334.32 12.3003C334.373 12.209 334.401 12.1055 334.401 12C334.401 11.8945 334.373 11.791 334.32 11.6997C334.267 11.6084 334.191 11.5326 334.1 11.48L329.9 9.056C329.809 9.00332 329.705 8.9756 329.6 8.97562C329.495 8.97563 329.391 9.00339 329.3 9.0561C329.209 9.1088 329.133 9.1846 329.08 9.27587C329.028 9.36713 329 9.47065 329 9.576L329 9.575Z" fill="rgb(255,255,255)" fill-rule="evenodd" />
			</g>
		</g>
		<path id="YouTube" d="M351.873 6.18182L353.867 6.18182L356.907 11.4716L357.032 11.4716L360.072 6.18182L362.066 6.18182L357.844 13.25L357.844 17.8182L356.094 17.8182L356.094 13.25L351.873 6.18182ZM365.826 17.9943C365.008 17.9943 364.294 17.8068 363.684 17.4318C363.074 17.0568 362.601 16.5322 362.263 15.858C361.926 15.1837 361.758 14.3958 361.758 13.4943C361.758 12.589 361.926 11.7973 362.263 11.1193C362.601 10.4413 363.074 9.91477 363.684 9.53977C364.294 9.16477 365.008 8.97727 365.826 8.97727C366.644 8.97727 367.358 9.16477 367.968 9.53977C368.578 9.91477 369.051 10.4413 369.388 11.1193C369.726 11.7973 369.894 12.589 369.894 13.4943C369.894 14.3958 369.726 15.1837 369.388 15.858C369.051 16.5322 368.578 17.0568 367.968 17.4318C367.358 17.8068 366.644 17.9943 365.826 17.9943ZM365.832 16.5682C366.362 16.5682 366.801 16.428 367.15 16.1477C367.498 15.8674 367.756 15.4943 367.923 15.0284C368.093 14.5625 368.178 14.0492 368.178 13.4886C368.178 12.9318 368.093 12.4205 367.923 11.9545C367.756 11.4848 367.498 11.108 367.15 10.8239C366.801 10.5398 366.362 10.3977 365.832 10.3977C365.298 10.3977 364.854 10.5398 364.502 10.8239C364.154 11.108 363.894 11.4848 363.724 11.9545C363.557 12.4205 363.474 12.9318 363.474 13.4886C363.474 14.0492 363.557 14.5625 363.724 15.0284C363.894 15.4943 364.154 15.8674 364.502 16.1477C364.854 16.428 365.298 16.5682 365.832 16.5682ZM377.319 14.1989L377.319 9.09091L379.023 9.09091L379.023 17.8182L377.353 17.8182L377.353 16.3068L377.262 16.3068C377.061 16.7727 376.739 17.161 376.296 17.4716C375.857 17.7784 375.309 17.9318 374.654 17.9318C374.094 17.9318 373.597 17.8087 373.165 17.5625C372.737 17.3125 372.4 16.9432 372.154 16.4545C371.912 15.9659 371.79 15.3617 371.79 14.642L371.79 9.09091L373.489 9.09091L373.489 14.4375C373.489 15.0322 373.654 15.5057 373.984 15.858C374.313 16.2102 374.741 16.3864 375.268 16.3864C375.586 16.3864 375.902 16.3068 376.217 16.1477C376.535 15.9886 376.798 15.7481 377.006 15.4261C377.219 15.1042 377.323 14.6951 377.319 14.1989ZM380.056 7.69318L380.056 6.18182L389.062 6.18182L389.062 7.69318L385.431 7.69318L385.431 17.8182L383.681 17.8182L383.681 7.69318L380.056 7.69318ZM395.256 14.1989L395.256 9.09091L396.961 9.09091L396.961 17.8182L395.29 17.8182L395.29 16.3068L395.2 16.3068C394.999 16.7727 394.677 17.161 394.234 17.4716C393.794 17.7784 393.247 17.9318 392.592 17.9318C392.031 17.9318 391.535 17.8087 391.103 17.5625C390.675 17.3125 390.338 16.9432 390.092 16.4545C389.849 15.9659 389.728 15.3617 389.728 14.642L389.728 9.09091L391.427 9.09091L391.427 14.4375C391.427 15.0322 391.592 15.5057 391.921 15.858C392.251 16.2102 392.679 16.3864 393.205 16.3864C393.523 16.3864 393.84 16.3068 394.154 16.1477C394.472 15.9886 394.736 15.7481 394.944 15.4261C395.156 15.1042 395.26 14.6951 395.256 14.1989ZM399.38 17.8182L399.38 6.18182L401.079 6.18182L401.079 10.5057L401.181 10.5057C401.28 10.3239 401.422 10.1136 401.607 9.875C401.793 9.63636 402.05 9.42803 402.38 9.25C402.71 9.06818 403.145 8.97727 403.687 8.97727C404.391 8.97727 405.02 9.1553 405.573 9.51136C406.126 9.86742 406.56 10.3807 406.874 11.0511C407.192 11.7216 407.352 12.5284 407.352 13.4716C407.352 14.4148 407.194 15.2235 406.88 15.8977C406.566 16.5682 406.134 17.0852 405.585 17.4489C405.035 17.8087 404.408 17.9886 403.704 17.9886C403.174 17.9886 402.74 17.8996 402.403 17.7216C402.069 17.5436 401.808 17.3352 401.619 17.0966C401.429 16.858 401.283 16.6458 401.181 16.4602L401.039 16.4602L401.039 17.8182L399.38 17.8182ZM401.045 13.4545C401.045 14.0682 401.134 14.6061 401.312 15.0682C401.49 15.5303 401.747 15.892 402.085 16.1534C402.422 16.411 402.835 16.5398 403.323 16.5398C403.831 16.5398 404.255 16.4053 404.596 16.1364C404.937 15.8636 405.194 15.4943 405.369 15.0284C405.547 14.5625 405.636 14.0379 405.636 13.4545C405.636 12.8788 405.549 12.3617 405.374 11.9034C405.204 11.4451 404.946 11.0833 404.602 10.8182C404.261 10.553 403.835 10.4205 403.323 10.4205C402.831 10.4205 402.414 10.5473 402.073 10.8011C401.736 11.0549 401.48 11.4091 401.306 11.8636C401.132 12.3182 401.045 12.8485 401.045 13.4545ZM413.021 17.9943C412.161 17.9943 411.42 17.8106 410.799 17.4432C410.182 17.072 409.704 16.5511 409.367 15.8807C409.034 15.2064 408.867 14.4167 408.867 13.5114C408.867 12.6174 409.034 11.8295 409.367 11.1477C409.704 10.4659 410.174 9.93371 410.776 9.55114C411.382 9.16856 412.091 8.97727 412.901 8.97727C413.394 8.97727 413.871 9.05871 414.333 9.22159C414.795 9.38447 415.21 9.64015 415.577 9.98864C415.945 10.3371 416.235 10.7898 416.447 11.3466C416.659 11.8996 416.765 12.572 416.765 13.3636L416.765 13.9659L409.827 13.9659L409.827 12.6932L415.1 12.6932C415.1 12.2462 415.009 11.8504 414.827 11.5057C414.646 11.1572 414.39 10.8826 414.06 10.6818C413.735 10.4811 413.352 10.3807 412.913 10.3807C412.435 10.3807 412.019 10.4981 411.663 10.733C411.31 10.964 411.038 11.267 410.844 11.642C410.655 12.0133 410.56 12.4167 410.56 12.8523L410.56 13.8466C410.56 14.4299 410.663 14.9261 410.867 15.3352C411.076 15.7443 411.365 16.0568 411.737 16.2727C412.108 16.4848 412.541 16.5909 413.038 16.5909C413.36 16.5909 413.653 16.5455 413.918 16.4545C414.183 16.3598 414.413 16.2197 414.606 16.0341C414.799 15.8485 414.947 15.6193 415.049 15.3466L416.657 15.6364C416.528 16.1098 416.297 16.5246 415.964 16.8807C415.634 17.233 415.219 17.5076 414.719 17.7045C414.223 17.8977 413.657 17.9943 413.021 17.9943Z" opacity="0.600000024" fill="rgb(255,255,255)" fill-rule="nonzero" />
	</g>
	<g id="Frame 2087326351" customFrame="url(#clipPath_6)">
		<rect id="Frame 2087326351" width="86.000000" height="24.000000" x="458.000000" y="0.000000" />
		<g id="mdi:twitter" clip-path="url(#clipPath_7)" customFrame="url(#clipPath_7)">
			<rect id="mdi:twitter" width="24.000000" height="24.000000" x="458.000000" y="0.000000" fill="rgb(255,255,255)" fill-opacity="0" />
			<path id="Vector" d="M480.46 6C479.69 6.35 478.86 6.58 478 6.69C478.88 6.16 479.56 5.32 479.88 4.31C479.05 4.81 478.13 5.16 477.16 5.36C476.37 4.5 475.26 4 474 4C471.65 4 469.73 5.92 469.73 8.29C469.73 8.63 469.77 8.96 469.84 9.27C466.28 9.09 463.11 7.38 461 4.79C460.63 5.42 460.42 6.16 460.42 6.94C460.42 8.43 461.17 9.75 462.33 10.5C461.62 10.5 460.96 10.3 460.38 10L460.38 10.03C460.38 12.11 461.86 13.85 463.82 14.24C463.191 14.4129 462.53 14.4369 461.89 14.31C462.162 15.1625 462.694 15.9084 463.411 16.4429C464.129 16.9775 464.995 17.2737 465.89 17.29C464.374 18.4905 462.494 19.1394 460.56 19.13C460.22 19.13 459.88 19.11 459.54 19.07C461.44 20.29 463.7 21 466.12 21C474 21 478.33 14.46 478.33 8.79C478.33 8.6 478.33 8.42 478.32 8.23C479.16 7.63 479.88 6.87 480.46 6Z" fill="rgb(255,255,255)" fill-rule="nonzero" />
		</g>
		<path id="Twitter" d="M490.728 7.69318L490.728 6.18182L499.734 6.18182L499.734 7.69318L496.103 7.69318L496.103 17.8182L494.353 17.8182L494.353 7.69318L490.728 7.69318ZM502.479 17.8182L499.911 9.09091L501.667 9.09091L503.377 15.5L503.462 15.5L505.178 9.09091L506.934 9.09091L508.638 15.4716L508.724 15.4716L510.423 9.09091L512.178 9.09091L509.616 17.8182L507.883 17.8182L506.11 11.517L505.979 11.517L504.207 17.8182L502.479 17.8182ZM513.79 17.8182L513.79 9.09091L515.489 9.09091L515.489 17.8182L513.79 17.8182ZM514.648 7.74432C514.353 7.74432 514.099 7.64583 513.887 7.44886C513.679 7.24811 513.575 7.00947 513.575 6.73295C513.575 6.45265 513.679 6.21402 513.887 6.01705C514.099 5.81629 514.353 5.71591 514.648 5.71591C514.944 5.71591 515.196 5.81629 515.404 6.01705C515.616 6.21402 515.722 6.45265 515.722 6.73295C515.722 7.00947 515.616 7.24811 515.404 7.44886C515.196 7.64583 514.944 7.74432 514.648 7.74432ZM521.849 9.09091L521.849 10.4545L517.082 10.4545L517.082 9.09091L521.849 9.09091ZM518.36 7L520.059 7L520.059 15.2557C520.059 15.5852 520.108 15.8333 520.207 16C520.305 16.1629 520.432 16.2746 520.587 16.3352C520.746 16.392 520.919 16.4205 521.104 16.4205C521.241 16.4205 521.36 16.411 521.462 16.392C521.565 16.3731 521.644 16.358 521.701 16.3466L522.008 17.75C521.909 17.7879 521.769 17.8258 521.587 17.8636C521.406 17.9053 521.178 17.928 520.906 17.9318C520.459 17.9394 520.042 17.8598 519.656 17.6932C519.269 17.5265 518.957 17.2689 518.718 16.9205C518.479 16.572 518.36 16.1345 518.36 15.608L518.36 7ZM527.802 9.09091L527.802 10.4545L523.035 10.4545L523.035 9.09091L527.802 9.09091ZM524.313 7L526.012 7L526.012 15.2557C526.012 15.5852 526.061 15.8333 526.16 16C526.258 16.1629 526.385 16.2746 526.54 16.3352C526.7 16.392 526.872 16.4205 527.058 16.4205C527.194 16.4205 527.313 16.411 527.415 16.392C527.518 16.3731 527.597 16.358 527.654 16.3466L527.961 17.75C527.862 17.7879 527.722 17.8258 527.54 17.8636C527.359 17.9053 527.131 17.928 526.859 17.9318C526.412 17.9394 525.995 17.8598 525.609 17.6932C525.222 17.5265 524.91 17.2689 524.671 16.9205C524.433 16.572 524.313 16.1345 524.313 15.608L524.313 7ZM533.349 17.9943C532.489 17.9943 531.748 17.8106 531.127 17.4432C530.51 17.072 530.032 16.5511 529.695 15.8807C529.362 15.2064 529.195 14.4167 529.195 13.5114C529.195 12.6174 529.362 11.8295 529.695 11.1477C530.032 10.4659 530.502 9.93371 531.104 9.55114C531.71 9.16856 532.419 8.97727 533.229 8.97727C533.722 8.97727 534.199 9.05871 534.661 9.22159C535.123 9.38447 535.538 9.64015 535.906 9.98864C536.273 10.3371 536.563 10.7898 536.775 11.3466C536.987 11.8996 537.093 12.572 537.093 13.3636L537.093 13.9659L530.156 13.9659L530.156 12.6932L535.428 12.6932C535.428 12.2462 535.337 11.8504 535.156 11.5057C534.974 11.1572 534.718 10.8826 534.388 10.6818C534.063 10.4811 533.68 10.3807 533.241 10.3807C532.763 10.3807 532.347 10.4981 531.991 10.733C531.638 10.964 531.366 11.267 531.173 11.642C530.983 12.0133 530.888 12.4167 530.888 12.8523L530.888 13.8466C530.888 14.4299 530.991 14.9261 531.195 15.3352C531.404 15.7443 531.693 16.0568 532.065 16.2727C532.436 16.4848 532.87 16.5909 533.366 16.5909C533.688 16.5909 533.981 16.5455 534.246 16.4545C534.512 16.3598 534.741 16.2197 534.934 16.0341C535.127 15.8485 535.275 15.6193 535.377 15.3466L536.985 15.6364C536.856 16.1098 536.625 16.5246 536.292 16.8807C535.962 17.233 535.548 17.5076 535.048 17.7045C534.551 17.8977 533.985 17.9943 533.349 17.9943ZM538.978 17.8182L538.978 9.09091L540.62 9.09091L540.62 10.4773L540.711 10.4773C540.87 10.0076 541.15 9.63826 541.552 9.36932C541.957 9.09659 542.415 8.96023 542.927 8.96023C543.033 8.96023 543.158 8.96402 543.302 8.97159C543.45 8.97917 543.565 8.98864 543.648 9L543.648 10.625C543.58 10.6061 543.459 10.5852 543.285 10.5625C543.111 10.536 542.936 10.5227 542.762 10.5227C542.361 10.5227 542.003 10.608 541.688 10.7784C541.378 10.9451 541.131 11.178 540.95 11.4773C540.768 11.7727 540.677 12.1098 540.677 12.4886L540.677 17.8182L538.978 17.8182Z" opacity="0.600000024" fill="rgb(255,255,255)" fill-rule="nonzero" />
	</g>
</svg>
